<?xml version="1.0" standalone="no"?>
<!DOCTYPE svg PUBLIC "-//W3C//DTD SVG 20010904//EN"
 "http://www.w3.org/TR/2001/REC-SVG-20010904/DTD/svg10.dtd">
<svg version="1.0" xmlns="http://www.w3.org/2000/svg"
 width="700.000000pt" height="700.000000pt" viewBox="0 0 700.000000 700.000000"
 preserveAspectRatio="xMidYMid meet">
<metadata>
Created by potrace 1.11, written by Peter Selinger 2001-2013
</metadata>
<g transform="translate(0.000000,700.000000) scale(0.100000,-0.100000)"
fill="#000000" stroke="none">
<path d="M3230 6989 c-703 -57 -1372 -321 -1915 -756 -141 -112 -371 -337
-490 -478 -336 -398 -579 -867 -710 -1370 -189 -725 -139 -1503 140 -2195 384
-947 1178 -1692 2145 -2010 221 -73 467 -128 720 -162 152 -20 635 -17 800 5
428 58 790 167 1145 347 696 351 1232 890 1575 1585 225 457 341 918 357 1425
23 741 -180 1453 -593 2070 -223 335 -540 661 -871 898 -663 474 -1497 706
-2303 641z m555 -537 c125 -27 233 -66 348 -124 347 -177 604 -490 713 -868
47 -165 54 -263 54 -807 l0 -503 270 0 270 0 -2 -1242 -3 -1243 -28 -88 c-15
-48 -45 -122 -66 -165 -140 -278 -416 -469 -729 -503 -64 -7 -467 -9 -1177 -7
-1074 4 -1080 4 -1163 26 -339 89 -575 315 -679 649 l-28 88 -3 1243 -2 1242
269 0 270 0 4 553 c4 509 6 559 25 647 41 193 107 352 214 512 79 119 262 303
379 381 186 123 400 201 639 231 80 10 337 -3 425 -22z"/>
<path d="M3303 5901 c-278 -75 -484 -255 -586 -511 -54 -137 -57 -175 -57
-736 l0 -517 632 6 c347 4 725 7 840 7 l209 0 -3 538 c-4 581 -3 567 -62 714
-75 185 -220 340 -401 428 -138 68 -195 81 -360 86 -117 3 -152 1 -212 -15z"/>
<path d="M3383 3396 c-179 -44 -324 -184 -377 -365 -33 -111 -15 -270 42 -375
32 -59 120 -157 168 -186 l34 -22 0 -424 0 -424 255 0 255 0 0 423 0 423 62
49 c74 60 141 156 169 245 29 88 29 220 0 311 -81 257 -348 408 -608 345z"/>
</g>
</svg>
